<svg width="20" height="35" viewBox="0 0 20 35" fill="none" xmlns="http://www.w3.org/2000/svg">
<path d="M19.265 28.1299C19.072 28.2894 18.8419 28.3805 18.5746 28.4033L18.5523 28.4375H12.8508V32.8125C12.8508 33.4049 12.7134 33.9176 12.4388 34.3506C12.1641 34.7835 11.8263 35 11.4254 35H8.57461C8.18857 35 7.85449 34.7835 7.57238 34.3506C7.29028 33.9176 7.14922 33.4049 7.14922 32.8125V28.4375H1.44766C1.44766 28.4147 1.44024 28.4033 1.42539 28.4033C1.15813 28.3805 0.927987 28.2894 0.734966 28.1299C0.393466 27.8337 0.170749 27.4007 0.0668141 26.8311C-0.0371205 26.2614 0.0148468 25.7145 0.222716 25.1904L3.5412 17.5H2.87305V17.4316C2.59094 17.4544 2.35338 17.3747 2.16036 17.1924C1.81886 16.8962 1.59614 16.4632 1.4922 15.8936C1.38827 15.3239 1.44024 14.777 1.64811 14.2529L8.77506 1.09375C8.77506 1.07096 8.80475 1.014 8.86414 0.922852L8.98664 0.734863L9.10913 0.563965L9.2539 0.393066L9.4098 0.239258L9.58797 0.102539L9.77728 0.0341797L10 0L10.2227 0.0341797L10.412 0.102539L10.5902 0.239258L10.7461 0.393066L10.8909 0.563965L11.0134 0.734863L11.1359 0.922852L11.2472 1.09375L18.3742 14.2529C18.5672 14.777 18.6117 15.3239 18.5078 15.8936C18.4039 16.4632 18.1811 16.8962 17.8396 17.1924C17.6466 17.3747 17.4091 17.4544 17.127 17.4316V17.5H16.4588L19.7996 25.1904C19.9926 25.7145 20.0371 26.2614 19.9332 26.8311C19.8293 27.4007 19.6065 27.8337 19.265 28.1299Z" fill="#989292"/>
</svg>
